<?xml version="1.0" encoding="UTF-8"?>
<svg width="28px" height="43px" viewBox="0 0 28 43" version="1.1" xmlns="http://www.w3.org/2000/svg" xmlns:xlink="http://www.w3.org/1999/xlink">
    <title>icon</title>
    <g id="Page-1" stroke="none" stroke-width="1" fill="none" fill-rule="evenodd" stroke-linecap="round" stroke-linejoin="round">
        <g id="Post-a-Tribute" transform="translate(-196.000000, -42.000000)" stroke="#FFFFFF" stroke-width="2">
            <g id="Group-10" transform="translate(197.000000, 43.230469)">
                <g id="icon" transform="translate(0.070866, 0.000000)">
                    <polygon id="Stroke-1" points="7.30921217 33.548063 17.7257806 33.548063 17.7257806 13.4237585 7.30921217 13.4237585"></polygon>
                    <line x1="12.4730346" y1="10.3836077" x2="12.4730346" y2="13.3363974" id="Stroke-2"></line>
                    <path d="M8.96563528,6.31140171 C8.96563528,8.4717354 10.3866475,9.77583927 12.5469811,9.77583927 C14.7056682,9.77583927 16.0361177,8.45197625 16.0361177,6.29164256 C16.0361177,3.77399758 12.5469811,0 12.5469811,0 C12.5469811,0 8.96563528,3.46443757 8.96563528,6.31140171 Z" id="Stroke-3"></path>
                    <path d="M17.6223678,17.4494717 C17.6223678,17.4494717 14.70749,16.6213169 12.9318579,18.1000634 C11.1562258,19.5802303 12.1037031,21.2962012 11.2741277,22.4212417 C10.4459729,23.5462823 8.84790396,23.9014087 7.30949627,23.5462823" id="Stroke-5"></path>
                    <polygon id="Stroke-7" points="2.95891341 40 22.0178386 40 25.0364133 33.548063 0 33.548063"></polygon>
                </g>
            </g>
        </g>
    </g>
</svg>